<?xml version="1.0" standalone="no"?>
<!DOCTYPE svg PUBLIC "-//W3C//DTD SVG 1.1//EN" "http://www.w3.org/Graphics/SVG/1.1/DTD/svg11.dtd" >
<svg xmlns="http://www.w3.org/2000/svg" xmlns:xlink="http://www.w3.org/1999/xlink" version="1.1">
<metadata></metadata>
<defs>
<font id="traceregular" horiz-adv-x="595" >
<font-face units-per-em="1000" ascent="800" descent="-200" />
<missing-glyph horiz-adv-x="239" />
<glyph horiz-adv-x="0" />
<glyph unicode="&#xd;" horiz-adv-x="239" />
<glyph unicode=" "  horiz-adv-x="239" />
<glyph unicode="&#x09;" horiz-adv-x="239" />
<glyph unicode="&#xa0;" horiz-adv-x="239" />
<glyph unicode="0" d="M312 800q9 0 28 -6q0 -1 -1 -4.5t-1 -5.5q-28 6 -43 6v10h17zM212 757l-30 -32q-3 0 -8 5q8 11 32 36q6 -6 6 -9zM446 705q0 -4 -6 -9q-1 1 -28 32q0 7 7 7q1 0 27 -30zM129 643q0 -5 -12 -38q-1 0 -4 1t-3.5 1.5l-1.5 1.5t-1 3q0 -1 16 40q6 -7 6 -9zM501 571 q-6 0 -10 -3q-3 14 -12 41q2 2 10 2q8 -22 12 -40zM95 514q-3 -15 -8 -45q-1 0 -5 1h-6q3 15 8 45h5q3 -1 6 -1zM518 433h-10q1 11 1 42q2 0 5 1.5t4 1.5q2 -11 0 -45zM90 315q-1 0 -4 -1h-6q-2 7 -5 45q6 0 10 2q0 -14 5 -46zM520 338v-13q0 10 -6 -32q-2 0 -5 1t-6 1 q4 14 7 45q1 0 4 -1t6 -1zM122 183q-5 -6 -8 -6q-5 10 -16 41q1 1 9 1q1 0 15 -36zM492 197q0 -6 -7.5 -20.5t-11.5 -17.5q-4 4 -4 7q0 2 16 39q1 -3 4 -4.5t3 -3.5zM191 63q0 -3 -5 -8q-15 14 -30 35q2 3 8 8q15 -20 27 -35zM430 74q-26 -30 -31 -30q-3 0 -8 4q10 10 31 34 zM311 0h-26q-2 0 -22 5q3 3 3 8q-3 0 45 -4v-9z" />
<glyph unicode="1" d="M299 799v-46h-10v30q-1 2 -2 2q-2 0 -29 -13q-3 2 -6 10l41 18q2 0 3 -1h3zM221 754q-14 -8 -41 -20q-3 2 -6 10q14 7 42 15zM299 678v-46h-10v46h10zM299 537v-46h-10v46h10zM299 396v-46h-10v46h10zM299 254v-45h-10v45h10zM299 113v-45h-10v45h10zM303 28q-2 -4 -2 -7 q0 -11 11 -11q3 0 6 1v-11h-45v11q3 -1 6 -1q15 0 9 18h15zM221 10v-10h-45v10h45zM421 10v-10h-45v10h45z" />
<glyph unicode="2" d="M359 800q5 0 20 -6.5t18 -9.5q-5 -5 -7 -5t-16.5 5.5t-23.5 5.5q0 1 1 4.5t1 5.5h7zM258 784q-11 0 -43 -13q0 5 -4 9q28 17 45 12zM485 675q-1 1 -10 1q-4 13 -13 40l8 8q8 -13 15 -49zM143 712q0 -2 -9 -15t-12 -19h-6q-4 4 -4 6q0 4 11.5 18.5t15.5 15.5q4 -4 4 -6z M470 583q-5 -14 -24 -42q-6 6 -6 9q0 4 24 37q3 -4 6 -4zM368 423q-6 7 -6 9q0 4 22 34h5q1 -2 5 -6zM313 345l-30 -36q-6 6 -6 8q0 4 11.5 18t19.5 14zM229 233l-29 -38l-8 8l29 38zM103 58q0 1 -23 -37q-7 6 -7 8q0 5 24 37q6 -6 6 -8zM109 10v-10h-47v5q1 3 1 5h46z M250 10v-10h-45v10h45zM392 10v-10h-46v10h46zM533 10v-10h-46v10h46z" />
<glyph unicode="3" d="M95.5 888h1h1h0.5h-0.5h-1h-1h-0.5h0.5zM298 799q16 0 22 -8q0 -6 -4 -6q-1 0 -10.5 2t-11.5 2h-17v10h21zM191 765q-13 -8 -35 -30l-8 8q22 25 39 26zM435 720q-1 -3 -6 -8l-27 33q0 7 6 7q16 -16 27 -32zM467 585q-11 0 -12 1q1 4 3 41q5 0 10 2q-1 -31 -1 -44z M437 509q-12 -16 -34 -29l-2 3q0 -1 -4 3q11 9 33 31zM414 399q-2 -8 -6 -8l-37 18q3 3 3 8h5q7 0 35 -18zM481 311q-2 -2 -6 -4q-8 10 -24 39q4 0 6 3l2 -2h2q8 0 20 -36zM500 217q-3 -30 -6 -45q-2 0 -4 1h-5v3q-1 1 -1 3q0 -10 6 38h10zM138 64l-8 -8l-31 31l8 8zM450 86 q-10 -9 -31 -30q-2 3 -9 6q10 10 32 31zM224 14q0 -6 -3 -7q-5 0 -21.5 8.5t-18.5 10.5q1 3 7 5zM332 16q-3 -2 -45 -10q0 6 -2 10q14 2 45 8q0 -5 2 -8zM281 427q-2 1 -40 0v11h40v-11zM324 444q14 4 43 19q3 0 6 -6q-8 -7 -27 -14t-18 -7z" />
<glyph unicode="4" d="M383 800v-46h-13q3 19 1 24q-9 -14 -20 -32q-6 6 -6 8q0 5 22 40q1 -2 4 -4q2 3 2 10h10zM280 631h-6q-1 2 -4 6q8 11 20 32h6q1 -2 4 -6q-8 -11 -20 -32zM383 659v-46h-10v46h10zM225 544q0 -3 -22 -38q-6 7 -6 9t21 37q7 -6 7 -8zM383 518v-46h-10v46h10zM151 424 q0 -3 -22 -38q-6 6 -6 8q0 3 22 38q6 -6 6 -8zM189 388v-10h-45v10h45zM296 386v-10h-45v10h45zM401 388v-12q-10 2 -18 1v-46h-10v46q-8 1 -18 -1v12h46zM472 388v-10h-46v10h46zM382 259v-45h-10v45h10zM383 140v-45h-10v45h10zM382 26l-1 -26h-10l1 26h10z" />
<glyph unicode="5" d="M370 800v-10h-46v10h46zM474 800v-10h-45v10h45zM143 696v-46q-2 0 -5.5 1t-4.5 1v45h6q3 -1 4 -1zM139 559v-45h-6q-3 1 -4 1v46q2 0 5.5 -1t4.5 -1zM302 481q-33 2 -44 0q0 6 -2 10q49 0 46 1v-11zM172 449l-33 -33l-6 6q16 20 31 33q3 -2 8 -6zM437 445l-8 -8 q-19 14 -38 23q6 6 10 6q5 0 36 -21zM508 328v-7q-5 0 -10 -2q-5 24 -14 45q3 0 5 2l3 -2q0 1 1 1q3 0 15 -37zM514 227q-2 -22 -5 -44q-1 0 -3.5 -1t-4.5 -1q-3 0 -3 5l3 17t3 25h4q4 -1 6 -1zM111 117v-6q-2 0 -6 -4q-8 9 -24 42q2 0 5 1.5t5 1.5q5 -12 20 -35zM438 55 q-3 0 -8 5q8 12 23 36h6q1 -2 4 -6q-8 -11 -25 -35zM214 28v-6l-4 -4q-14 7 -39 25l8 8q8 -8 35 -23zM354 8q-16 -2 -47 -8q0 6 -3 10q15 3 48 8q0 -1 1 -4.5t1 -5.5zM169 800l-29 -1l-2 -27l11 -3l1 18l19 3v10zM137 462v-45q-2 0 -5 1h-5v46q2 0 5.5 -1t4.5 -1zM263 800 v-10h-46v10h46z" />
<glyph unicode="6" d="M317 783q-15 -1 -46 -6q4 13 19 16q13 0 27 1v-11zM422 785l1 -6l-4 -5q-12 5 -38 14q0 4 -2 5q2 4 6 7q12 -5 37 -15zM229 747q-10 -11 -32 -36l-8 8q10 12 33 34zM150 627q0 -1 -6 -16.5t-8 -23.5q-4 1 -9 5q6 20 17 45q6 -12 6 -10zM111 499q-3 -15 -6 -46q-2 0 -5 1 h-6q3 17 6 46q2 0 5 -1h6zM349 481h-46q0 5 -2 10q25 2 49 0v-4q-1 -4 -1 -6zM450 427v-6q-2 0 -6 -4q-18 21 -36 34l8 8q23 -19 34 -32zM234 466q-13 -8 -38 -24q-3 1 -7 8q12 9 40 25q2 -3 5 -9zM146 396q-8 -12 -26 -36q-3 2 -8 6q5 10 10.5 19.5t16.5 17.5zM102 357v-45 h-11v45h11zM503 294q-1 0 -4 -1h-6q-2 14 -8 41q3 3 11 3q6 -28 7 -43zM117 172q-6 0 -8 -2q-7 8 -12 43q2 0 5 1.5t4 1.5q3 -14 11 -44zM493 195q0 -6 -13 -43q-3 1 -9 5q4 13 10 40q1 0 4 2q8 0 8 -4zM186 53l-6 -7q-30 30 -30 36t7 6q10 -11 29 -35zM436 66 q-22 -19 -33 -31l-8 8q11 12 33 31zM277 10h32q0 -1 1 -4.5t1 -5.5h-36q-4 0 -12 4l1 3.5t1 6.5q8 -4 12 -4z" />
<glyph unicode="7" d="M144 800v-10h-46v10h46zM267 800v-10h-45v10h45zM385 800v-10h-46v10h46zM497 800v-9q0 -3 -9 -20t-12 -20q-4 4 -4 7t11 30q-2 2 -4 2h-28v10h46zM435 636q-5 5 -5 7l14 36h7q0 -1 1 -2.5t1 -3.5q0 -5 -7.5 -19.5t-10.5 -17.5zM389 504q-9 3 -9 7l16 36h7q0 1 1 -7z M336 372q-4 4 -4 7q0 -1 14 36h7v-3q1 -2 1 -4q0 -4 -7.5 -19t-10.5 -17zM286 239q-4 5 -4 7l14 36h7v-3q1 -1 1 -3q0 -5 -7.5 -19.5t-10.5 -17.5zM236 108q-4 5 -4 7l14 36h7v-3q1 -1 1 -3q0 -5 -7.5 -19.5t-10.5 -17.5zM197 0q-8 3 -8 7l16 36h6q0 1 2 -7z" />
<glyph unicode="8" d="M255 790q-9 -2 -43 -16q0 5 -4 8q24 15 45 18q0 -1 1 -4.5t1 -5.5zM389 782v-6l-4 -4q-11 5 -35 15q0 10 1 12q18 -7 38 -17zM142 714q0 2 -20 -37q-1 0 -4 1.5t-4 1.5q3 16 22 41q6 -6 6 -7zM482 669q-6 0 -10 -2q-8 22 -19 42q3 0 6 2l2 -1h2q9 0 19 -41zM124 537 q-1 -1 -3.5 -3t-4.5 -4q-9 27 -13 47q2 0 5.5 1.5t5.5 1.5q3 -14 10 -43zM490 576q-10 -31 -13 -44h-6q-4 3 -4 6q0 1 5 16t7 23q1 0 4 -1h7zM197 453q-2 -2 -4 -4.5t-3 -3.5q-7 3 -22 12t-15 14q0 3 5 7q21 -16 39 -25zM442 467q-8 -14 -38 -27q-2 2 -7 8q9 4 39 25z M290 422v-10q-13 -2 -44 -7q0 2 -1 3.5t-1 3.5q0 3 4 5l-10 9q0 2 3 5q22 -7 49 -9zM353 422q0 -3 -4 -5q3 -1 9 -1q1 -1 1 -12q-17 3 -52 8q0 5 -2 10q15 1 46 7q0 -1 1 -3t1 -4zM200 388q-21 -6 -38 -18q-1 1 -3 4t-3 4q15 14 43 21q0 -2 1 -5v-6zM441 371l-5 -4 q-12 8 -36 20v4q1 3 1 5q8 -2 40 -19v-6zM94 280q-1 0 -4 -2q-3 3 -6 3l19 38h6q1 -1 2 -2.5t2 -2.5q-7 -12 -19 -34zM514 272q-5 0 -8 -2q-18 33 -18 37q0 8 8 8q11 -21 18 -43zM522 179q-6 -29 -13 -44h-6q-4 3 -4 6q0 1 5.5 16t6.5 23q1 0 5 -1h6zM95 140q0 -5 -8 -9 q-9 25 -14 48q3 -3 11 -3q11 -29 11 -36zM188 35q-2 -3 -6 -8q-24 15 -39 28l7 8q1 0 38 -28zM451 56q0 -3 -15 -14.5t-23 -14.5q0 4 -4 8q21 15 36 28q6 -5 6 -7zM319 10q0 -1 1 -4v-6q-21 -2 -45 0q0 1 1 4.5t1 5.5h42z" />
<glyph unicode="9" d="M306 800v-10q-9 0 -44 -6q0 1 -1 3v3q0 3 11.5 6.5t15.5 3.5h18zM428 738q0 -3 -6 -8q-33 28 -33 31t4 7q19 -13 35 -30zM183 736q-10 -11 -28 -34q-6 6 -6 8q0 4 10 17t19 13zM484 608q-2 0 -4.5 -1t-6.5 -1q-2 21 -9 41q3 3 10 3q7 -19 10 -42zM124 615q-4 -13 -5 -29 q0 -19 1 -30.5t1 -8.5q-1 0 -4.5 -1t-7.5 -1v27q0 21 5 45q1 0 4.5 -1t5.5 -1zM486 553q1 -23 -1.5 -49t-2.5 -29q-4 3 -8 3t-7.5 -3.5l-3.5 -3.5q-6 5 -4 6q12 13 16 43q2 17 4 33h7zM169 420q0 -2 -6 -8q-25 29 -25 37q0 2 6 8q11 -18 25 -37zM481 451q-3 -16 -6 -46 q-2 0 -5 1t-6 1q3 14 6 45q2 0 5 -1h6zM412 391l-31 -29l-11 5l36 30zM282 353v-5q-1 -3 -1 -5q-9 0 -42 9v6q4 4 7 4q1 0 15 -4t21 -5zM462 312q-3 -14 -8 -42q-11 0 -11 2q0 1 9 42q1 0 4 -1t6 -1zM430 175q-4 -19 -13 -43h-4l-3 1.5t-2 1.5v3q0 -9 12 39q1 0 4 -1t6 -1z M384 43q-6 -14 -18 -41l-3 -2q-4 4 -7 4q6 16 21 42q4 -3 7 -3z" />
<glyph unicode="A" horiz-adv-x="630" d="M342 789q2 -5 14 -41q-6 0 -10 -2q-4 13 -13 38q-2 -2 -11 -28h-4l-3 2q-1 0 -2 1v3q0 -4 12 38h9q1 -4 8 -11zM300 686q-4 2 -10 6q8 22 12 40q5 0 12 -2zM378 680q-6 0 -8 -2q-2 2 -16 41q2 3 10 3q5 -13 14 -42zM257 550l-10 5q5 14 13 42q4 0 12 -2zM421 544 q-6 0 -10 -2l-14 42q2 3 10 3zM214 417h-4q-3 1 -3 2q-3 2 -3 4q0 -7 13 38q4 0 12 -2zM464 409q-6 0 -8 -2q-2 3 -16 41q2 3 10 3q5 -13 14 -42zM170 279l-10 5l14 42q4 0 12 -2q-6 -14 -16 -45zM505 273q-6 0 -10 -2l-12 42q2 3 10 3q9 -28 12 -43zM247 288v-11h-45v11h45 zM356 288v-11h-46v11h46zM461 288v-11h-46v11h46zM129 146h-5q-2 1 -5 3v3q0 -4 12 38q4 0 12 -2zM548 138q-6 0 -10 -2l-12 41q2 3 10 3q4 -13 12 -42zM84 8q-4 2 -10 6l14 41q4 0 12 -2q-6 -14 -16 -45zM591 2q-6 0 -10 -2l-14 42q3 3 10 3z" />
<glyph unicode="B" horiz-adv-x="554" d="M122 800v-10h-23q-1 -4 1 -12h-12v22h34zM263 800v-10h-46v10h46zM399 752q0 -2 -6 -8q-11 9 -35 24q0 4 -2 6q6 5 7 5q18 -11 36 -27zM98 720v-45h-10v45h10zM447 623l-12 -2q1 24 -1 44h10q2 -4 3 -8q2 -5 0 -34zM98 612v-45h-10v45h10zM432 526q-13 -26 -26 -39 q-3 0 -9 6q10 15 29 36q3 -3 6 -3zM88 426v45h10v-40zM361 446q-18 -11 -27 -13l-18 -5l-2 9q9 2 39 17q2 -1 8 -8zM170 429v-10h-46v10h46zM258 430v-10h-45v10h45zM402 388q-4 -2 -5 -6l-2 1q-2 -1 -3 -1q-4 4 -37 22l2 4l2 6q20 -9 43 -26zM462 313q-2 -3 -6 -5 q-23 31 -23 36q0 3 4 8q19 -24 25 -39zM98 331v-46h-10v46h10zM496 196q0 -16 -7 -22q-1 0 -4 1t-5 1q6 11 6 20q0 7 -4 23h9q5 0 5 -23zM98 190v-46h-10v46h10zM449 83q0 -4 -11.5 -17t-15.5 -16l-8 8q16 9 28 34q7 -3 7 -9zM100 49q1 -31 0 -38h23v-11h-29q0 6 -6 6v43h12 zM349 13q-4 -1 -45 -8q0 6 -2 10q15 2 46 8q0 -2 1 -5v-5zM226 11v-11h-46v11h46z" />
<glyph unicode="C" horiz-adv-x="528" d="M270 786q-21 -5 -40 -14q-2 2 -6 7q6 7 19 10.5t25 6.5q0 -6 2 -10zM403 775v-6l-4 -4q-13 6 -40 18q3 3 3 8h5q2 0 36 -16zM446 715zM136 677h-7q0 1 -1 3t-1 4q0 1 19 32h5l5 -5q-4 -6 -20 -34zM478 659v-7q-6 0 -10 -2q-5 18 -13 39l8 8q15 -37 15 -38zM99 542h-6 q-4 7 -4 10q0 1 2.5 14t3.5 20q2 0 12 -2q-3 -14 -8 -42zM91 447v-46h-10v46h10zM95 261q-1 0 -4.5 -1t-8.5 -1v46q5 0 10 2q1 -16 3 -46zM129 131q0 -4 -8 -8q-8 14 -18 43h7q3 1 5 1q3 -12 14 -36zM471 115q-4 1 -10 5q5 14 11 41q9 0 12 -2q-4 -15 -13 -44zM214 26 q0 -4 -1 -6.5t-1 -3.5q-18 5 -40 26l7 7q11 -8 35 -23zM353 8q-23 -8 -29 -8h-16v11q5 -1 41 7q4 -4 4 -10zM410 41l-6 9q11 11 28 32q9 -4 10 -7q-10 -11 -32 -34z" />
<glyph unicode="D" horiz-adv-x="557" d="M122 800v-12q-28 0 -30 -2v-37h-10v51h40zM239 800v-10h-45v10h45zM375 766q0 -4 -4 -8q-13 6 -41 16q0 1 1 4t1 5h2q1 1 3 1t38 -18zM464 658q0 -1 -2 -1.5t-2 -2.5h-3q0 3 -24 34q5 6 10 8q21 -34 21 -38zM92 655v-45h-10v45h10zM498 520l-10 -2l-8 41q2 3 10 3 q2 -13 8 -42zM92 515v-45h-10v45h10zM502 424v-45h-10v45h10zM92 376v-45h-10v45h10zM499 283q-2 -15 -8 -44q-10 5 -10 6q0 6 8 40q1 0 4.5 -1t5.5 -1zM92 237v-45h-10v45h10zM452 107h-6q-4 4 -4 6q0 3 7 17t8 20q4 0 12 -2q-5 -14 -17 -41zM92 97v-45h-10v45h10zM386 35 q-16 -17 -39 -20q-4 3 -4 6t22 14l19 10zM249 10v-10h-45v10h45zM119 0l1 13q-28 -3 -38 1v-14h37z" />
<glyph unicode="E" horiz-adv-x="488" d="M107 800v-12q-10 2 -20 1v-40h-10v51h6h24zM212 800v-10h-45v10h45zM334 800v-10h-45v10h45zM456 800v-10h-45v10h45zM87 655v-45h-10v45h10zM87 515v-45h-10v45h10zM136 417v-10h-45v10h45zM245 416v-10h-45v10h45zM360 417v-10h-45v10h45zM87 376v-45h-10v45h10z M87 237v-45h-10v45h10zM87 97v-45h-10v45h10zM89 10q0 -1 -1 0h43v-10h-45h-9v10h12zM238 10v-10h-45v10h45zM355 10v-10h-45v10h45zM454 10v-10h-26v10h26z" />
<glyph unicode="F" horiz-adv-x="507" d="M122 800v-10h-46v10h46zM236 800v-10h-45v10h45zM355 800v-10h-45v10h45zM481 800v-10h-46v10h46zM86 794v-45h-11v45h11zM86 683v-46h-11v46h11zM86 567v-45h-11v45h11zM278 412v-11h-45v11h45zM394 412v-11h-45v11h45zM86 300v-46h-11v46h11zM86 159v-46h-11v46h11z M84 27v-27h-10v27h10zM87 441l-1 -45h-11v45h12zM166 413v-11h-45v11h45z" />
<glyph unicode="G" horiz-adv-x="554" d="M290 800v-10q-15 -1 -44 -9v4q-1 1 -1 3q0 4 14 8t18 4h13zM423 752l-8 -8q-11 8 -33 23v6q2 1 6 4q12 -8 35 -25zM171 733q-9 -12 -28 -34q-1 0 -4 1.5t-5 1.5q10 13 29 39zM467 620h-10q2 21 0 42q2 2 10 2q0 -46 0 -44zM106 613q3 -3 3 -5q0 -3 -9 -39q-1 0 -5 1h-6 q6 28 11 43h6zM91 474q0 -8 -2 -28q-1 -10 3 -18h-11v47q1 0 5 -1h5zM353 373v-11h-45v11h45zM494 373v-11h-46v11h46zM504 346q2 -12 0 -46h-5q-3 1 -5 1v45h10zM90 333v-45h-10v45h10zM495 206q-3 -18 -9 -43q-11 0 -11 3q0 -6 10 41h4q4 -1 6 -1zM115 150q-6 0 -10 -2 q-5 20 -10 42q3 3 11 3zM441 73q-19 -23 -31 -31l-8 8q12 8 32 31zM188 40q0 -3 -6 -9q-12 9 -31 32l8 8q18 -22 29 -31zM319 11q0 -1 1 -4.5t1 -5.5q-12 -1 -23 -1q-12 0 -24 1q0 1 1 4.5t1 5.5h43z" />
<glyph unicode="H" horiz-adv-x="554" d="M122 800v-46h-11v46h11zM489 800v-46h-10v46h10zM122 659v-46h-11v46h11zM489 659v-46h-10v46h10zM122 518v-46h-11v46h11zM489 518v-46h-10v46h10zM184 418v-11h-46v11h46zM325 418v-11h-46v11h46zM466 418v-11h-46v11h46zM122 376v-45h-11v45h11zM489 376v-45h-10v45 h10zM122 235v-45h-11v45h11zM489 235v-45h-10v45h10zM122 125v-45h-11v45h11zM489 123v-45h-10v45h10zM122 26v-26h-11v26h11zM489 30v-30h-10v30h10z" />
<glyph unicode="I" horiz-adv-x="408" d="M133 800v-10h-45v10h45zM240 800v-10h-45v10h45zM342 800v-10h-45v10h45zM223 763v-45h-10v45h10zM223 644v-45h-10v45h10zM223 504v-45h-10v45h10zM223 365v-45h-10v45h10zM223 226v-45h-10v45h10zM223 86v-45h-10v45h10zM133 10v-10h-45v10h45zM238 10v-10h-45v10h45z M342 10v-10h-45v10h45z" />
<glyph unicode="J" horiz-adv-x="507" d="M443 659v-45h-10v45h10zM443 520v-45h-10v45h10zM443 381v-45h-10v45h10zM443 241v-45q-1 0 -4.5 1t-5.5 1v43h10zM95 112q-6 0 -8 -2q-8 9 -12 45q2 0 5 1.5t4 1.5q3 -15 11 -46zM423 103q-6 -23 -22 -41q-2 0 -8 6q4 6 11.5 19t11.5 20q4 -4 7 -4zM182 14q-3 -3 -3 -6 q-15 4 -43 24l8 8q5 -7 18.5 -12.5t19.5 -13.5zM318 12q-36 -9 -37 -9h-8q0 5 -2 10q11 1 43 9q4 -4 4 -10zM443 800v-45h-10v45h10z" />
<glyph unicode="K" horiz-adv-x="537" d="M87 800v-45h-10v45h10zM443 784l-29 -35l-8 7l29 36zM355 675l-30 -34l-7 8l29 34zM87 653v-45h-10v45h10zM268 568l-30 -36l-8 8l30 36zM87 507v-45h-10v45h10zM179 459l-29 -34l-8 8l29 34zM268 366q0 -5 -7 -8q-9 12 -24 38q2 0 5.5 1.5t4.5 1.5zM87 358v-45h-10v45 h10zM342 247q0 -5 -7 -8q-9 13 -24 39q2 0 5.5 1.5t4.5 1.5zM87 205v-45h-10v45h10zM416 129q0 -4 -7 -8q-9 13 -24 38q2 0 5.5 1.5t4.5 1.5zM87 45v-45h-10v45h10zM490 12q0 -5 -7 -9q-9 13 -24 39q2 0 5.5 1.5t4.5 1.5z" />
<glyph unicode="L" horiz-adv-x="448" d="M86 800v-45h-10v45h10zM86 691v-45h-10v45h10zM86 551v-46h-10v46h10zM86 410v-45h-10v45h10zM86 270v-45h-10v45h10zM86 130v-46h-10v46h10zM88 28q-2 -10 -1 -18h43v-10h-45q-3 6 -9 6v22h12zM271 10v-10h-46v10h46zM411 10v-10h-45v10h45z" />
<glyph unicode="M" horiz-adv-x="598" d="M127 761q-3 -1 -8 -6l-6 15q-5 10 -11 10q-3 0 -6 -2v22h11q5 0 20 -39zM533 754h-13q2 26 1 31q-4 -6 -9 -20h-6q-4 3 -4 6q0 -8 12 29h19v-46zM163 670q-1 -1 -4 -3t-4 -3q-11 24 -18 45q2 0 5.5 2.5t5.5 2.5zM533 691v-45h-11v45h11zM106 708v-46h-10v46h10zM464 659 q-5 4 -5 7q0 -1 16 34h7v-3q1 -1 1 -3q0 -3 -8 -17.5t-11 -17.5zM211 534l-20 44q3 0 7 4q9 -14 21 -41q-1 -1 -4 -3t-4 -4zM533 550v-46h-11v46h11zM413 530h-6q-3 3 -3 6q0 -6 15 35h6q4 -4 4 -6q0 5 -16 -35zM106 567v-46h-10v46h10zM273 411q-2 -2 -8 -6q-13 28 -18 43 q2 0 5.5 1t5.5 1zM533 409v-46h-11v46h11zM357 398q-8 3 -8 8l15 35h7q0 1 2 -7zM106 425v-45h-10v45h10zM310 299q-6 12 -18 45q3 0 7 4q4 -10 12 -26q7 11 13 29q7 -8 10 -6q-22 -48 -24 -46zM533 268v-46h-11v46h11zM106 284v-45h-10v45h10zM533 126v-45h-11v45h11z M106 143v-46h-10v46h10zM106 47v-46h-10v46h10zM532 29v-29h-10v29h10z" />
<glyph unicode="N" horiz-adv-x="541" d="M128 761q-3 -1 -8 -6q0 1 -7 16q-5 11 -10 11q-3 0 -6 -4v22h11q5 0 20 -39zM460 801v-46h-10v46h10zM107 729v-46h-10v46h10zM156 673l-20 44q3 0 7 4q9 -14 21 -41q-1 -1 -4 -3t-4 -4zM460 659v-46h-10v46h10zM107 587v-45h-10v45h10zM218 550q-1 -1 -4 -3t-4 -4 q-13 29 -18 44q2 0 5 1t5 1q6 -13 16 -39zM460 518v-46h-10v46h10zM107 446v-46h-10v46h10zM267 414l-19 44q3 0 7 3q8 -13 20 -41q-1 -1 -3.5 -3t-4.5 -3zM460 376v-45h-10v45h10zM107 305v-46h-10v46h10zM323 283q-6 15 -19 45q3 0 7 4q8 -15 20 -43q-2 -2 -8 -6zM460 235 v-46h-10v46h10zM107 163v-46h-10v46h10zM379 153q-3 8 -9.5 23t-9.5 22q3 0 7 4q8 -15 20 -42q-1 -1 -3.5 -3t-4.5 -4zM461 135v-45h-11v45h11zM461 55v-51q-2 -2 -16 1q-2 5 -5 13q3 -1 11 3l-1 34h11zM107 46v-46h-10v46h10zM422 50q-3 8 -9.5 23t-9.5 22q3 0 7 4 q8 -15 20 -42q-1 -1 -3.5 -3t-4.5 -4z" />
<glyph unicode="O" horiz-adv-x="569" d="M311 800q4 0 32 -8q-2 -4 -6 -10q-20 10 -42 8v10h16zM213 759q-10 -11 -31 -34q-2 0 -8 5q10 13 33 36zM445 698q-3 -2 -8 -6q-9 16 -26 35l8 8q18 -20 26 -37zM133 648q-5 -14 -16 -44q-4 2 -9 5q7 28 19 42q3 -3 6 -3zM499 566q-6 0 -10 -2q-4 15 -13 42q3 2 10 2 q9 -27 13 -42zM95 514q-2 -16 -6 -45q-1 0 -5 1h-6q4 15 7 45h4q3 -1 6 -1zM516 430h-12q5 6 3 23q-2 26 -2 20q0 -1 11 0v-43zM91 366q-4 -8 -3 -15q2 -18 2 -29h-4q-3 -1 -7 -1v45h12zM516 335q-3 -20 -6 -45q-1 0 -4.5 1t-5.5 1q2 14 6 45q1 0 4 -1t6 -1zM121 186 q-6 0 -10 -2q-8 23 -12 40q2 2 10 2q3 -12 12 -40zM468 156q-5 5 -5 7t6 15.5t8 20.5q4 0 12 -2q-4 -13 -21 -41zM188 62q-3 0 -6 -3q-18 21 -30 40q3 0 7 3q9 -10 29 -33v-7zM425 71q-10 -13 -33 -31q-2 2 -6 5q10 10 31 34zM304 0h-19q-8 0 -27 7q2 2 2 8q21 -5 42 -5 q0 -1 1 -4t1 -6z" />
<glyph unicode="P" horiz-adv-x="433" d="M136 800v-10h-44v-41h-13v45q9 -1 12 6h45zM236 798v-11h-46v11h46zM345 780v-6q-1 -3 -1 -4q-14 5 -44 13q5 10 9 10t36 -13zM444 675q-6 0 -10 -2q-3 7 -19 40q2 0 5.5 1.5t5.5 1.5q6 -13 18 -41zM88 678v-46h-10v46h10zM464 582q3 -22 0 -44l-9 -2v46h9zM88 537v-46 h-10v46h10zM412 454q-11 -11 -39 -28q0 3 -3 6q11 10 36 29zM143 399l-1 -11h-43v5q-1 3 -1 6q44 -2 45 0zM283 390h-45v11h44q0 -1 1 -4v-7zM88 396v-46h-10v46h10zM88 254v-45h-10v45h10zM88 113v-45h-10v45h10zM89 21v-21h-11v21h11z" />
<glyph unicode="Q" horiz-adv-x="575" d="M312 800q4 0 32 -8l-5 -10q-20 10 -43 8v10h16zM214 759q-10 -11 -30 -34q-3 0 -9 5q10 13 33 36zM446 698q-2 -2 -8 -6q-9 16 -26 35l8 8q18 -20 26 -37zM134 648q-5 -14 -16 -44q-3 2 -9 5q8 28 19 42q3 -3 6 -3zM500 566q-6 0 -10 -2q-4 15 -13 42q3 2 10 2 q10 -27 13 -42zM96 514q-2 -16 -6 -45q-1 0 -5 1h-5q3 15 6 45h4q4 -1 6 -1zM517 430h-12q5 6 4 21q-3 23 -3 18q0 2 11 4v-43zM92 366q-4 -8 -3 -15q2 -18 3 -29h-5q-3 -1 -7 -1v45h12zM517 335q-3 -20 -6 -45q-1 0 -4.5 1t-5.5 1q2 14 6 45q1 0 4.5 -1t5.5 -1zM123 186 q-6 0 -11 -2q-8 23 -12 40q3 2 10 2q3 -12 13 -40zM469 156q-4 5 -4 7t5.5 15.5t7.5 20.5q4 0 12 -2q-4 -13 -21 -41zM189 62q-3 0 -6 -3q-18 21 -30 40q3 0 7 3q9 -10 29 -33v-7zM305 0h-19q-7 0 -27 7q2 2 2 8q22 -5 42 -5q0 -1 1 -4t1 -6zM401 122q0 -4 -8 -8 q-8 13 -24 38q2 0 5.5 1.5t5.5 1.5zM489 11q0 -5 -7 -9l-29 42q8 8 11 8zM419 78l7 8l9 -11q-10 -11 -38 -36l-9 7l31 32l-2 2z" />
<glyph unicode="R" horiz-adv-x="540" d="M137 800v-10h-45v-41h-13v45q10 -1 13 6h45zM245 800v-10h-45v10h45zM346 780q0 -3 -1 -6t-1 -4q-14 5 -43 13q5 10 9 10q3 0 36 -13zM445 675q-6 0 -10 -2q-3 7 -20 40q2 0 5.5 1.5t5.5 1.5q7 -13 19 -41zM90 685v-46h-11v46h11zM465 582q2 -22 0 -44l-10 -2v46h10z M90 544v-46h-11v46h11zM412 454q-11 -11 -38 -28q0 3 -4 6q11 10 36 29zM165 401l-1 -10h-43v5q-1 3 -1 5q44 -1 45 0zM284 390h-46v11h44q0 -1 1 -4t1 -7zM90 403v-46h-11v46h11zM90 261v-45h-11v45h11zM90 120v-45h-11v45h11zM89 21v-21h-10v21h10zM351 288q-8 15 -21 44 q3 0 6 3q7 -5 13 -17q9 -20 10 -21q0 -5 -8 -9zM416 150q-9 14 -21 43q3 0 6 3q7 -5 12 -17q10 -20 10 -21q0 -4 -7 -8zM480 7l-19 44q3 0 7 4q8 -14 21 -41q-3 -2 -9 -7z" />
<glyph unicode="S" horiz-adv-x="530" d="M310 799q12 0 34 -10q-1 -4 -5 -10q-20 8 -41 9v11h12zM206 780q-12 -5 -36 -20l-8 8l43 24q0 -3 1 -6v-6zM463 716q0 -3 -6 -8q-33 25 -33 29q0 2 4 7q11 -10 35 -28zM106 645q-2 0 -5 1t-6 1q4 23 10 44q9 -5 9 -6t-4 -16t-4 -24zM141 519q0 -2 -6 -8q-9 6 -27 40 q3 0 5 2l3 -1h1q2 0 10 -12q9 -16 14 -21zM250 438v-6l-4 -4q-24 15 -38 25q6 6 10 6q2 0 32 -21zM355 382v-5l-4 -4l-37 18q0 1 -2 4q6 6 7 6zM463 295q0 -4 -6 -9q-8 10 -27 34l7 7q11 -12 26 -32zM480 196v-18q0 2 -4 -25q-1 0 -3.5 -1t-4.5 -1q-4 0 -4 5q0 6 3 19t3 21 h10zM112 80l-8 -8l-30 31q0 6 7 6zM422 70q0 -4 -32 -32l-8 8q22 19 34 31q6 -5 6 -7zM194 26q-3 -4 -3 -7q-14 7 -42 25q5 6 10 7q3 0 17.5 -10t17.5 -15zM300 11v-4q1 -3 1 -6q-12 -1 -24 -1t-24 1q0 1 1 5v5h46z" />
<glyph unicode="T" horiz-adv-x="499" d="M111 800v-10h-46v10h46zM252 800v-10h-45v10h45zM393 800v-10h-45v10h45zM535 800v-10h-46v10h46zM305 613v-46h-10v46h10zM305 472v-46h-10v46h10zM305 331v-46h-10v46h10zM305 189v-45h-10v45h10zM305 48v-45h-10v45h10zM305 708h-10v19v17q0 33 0 28h10v-64z" />
<glyph unicode="U" horiz-adv-x="533" d="M97 800v-45h-10v45h10zM468 794v-45h-10v45h10zM468 692v-45h-10v45h10zM97 660v-45h-10v45h10zM468 552v-45h-10v45h10zM97 520v-46h-10v46h10zM468 412v-45h-10v45h10zM97 380v-46h-10v46h10zM468 272v-46h-10v46h10zM97 239v-45h-10v45h10zM465 162v-11q0 1 -9 -31 q-6 -3 -12 0q9 27 11 44q1 0 4.5 -1t5.5 -1zM140 66q0 -2 -6 -8q-7 7 -26 37l8 8zM395 44q-2 -7 -35 -27q-5 5 -11 5q12 7 40 28zM261 3q-15 3 -43 7q-1 1 -1 11q15 -3 45 -8q0 -1 -1 -4v-6z" />
<glyph unicode="V" horiz-adv-x="531" d="M111 756q-6 0 -10 -2q-4 14 -11 42q3 3 10 3q4 -14 11 -43zM464 756q-3 2 -9 5l9 39q9 0 12 -2q-3 -13 -12 -42zM434 618q-4 1 -10 5q4 18 9 42q2 0 12 -2q-4 -15 -11 -45zM143 619q-5 0 -10 -2q-5 19 -9 42q2 3 10 3zM403 481l-10 5q5 19 9 42q2 0 12 -2q-4 -15 -11 -45 zM177 481q-6 0 -10 -2q-4 14 -11 42q3 3 10 3q4 -14 11 -43zM370 343q-3 1 -9 5q4 18 9 42q2 0 12 -2zM210 344q-6 0 -11 -2q-4 19 -9 42q3 3 10 3zM339 205q-3 1 -9 5q6 27 9 43q2 0 12 -2q-3 -15 -12 -46zM243 207q-5 0 -10 -2q-5 20 -9 43q2 2 10 2zM277 69q-6 0 -10 -2 l-11 44q3 2 10 2zM309 68q-4 1 -10 5q4 18 9 42q2 0 12 -2q-4 -15 -11 -45zM288 32l7 15q5 0 9 -4q-4 -14 -11 -43h-10q-5 19 -9 42q2 2 10 2q0 -2 1 -5.5t1.5 -4.5t1.5 -2z" />
<glyph unicode="W" horiz-adv-x="617" d="M106 752h-4q-3 -1 -6 -1q-2 14 -6 45q5 0 10 3q2 -15 6 -47zM570 673l-7 -44q-1 0 -4 1t-6 1l6 44q1 0 4.5 -1t6.5 -1zM124 613q-1 0 -4 -1h-7q-1 14 -6 45q6 0 10 2q3 -14 7 -46zM552 534l-6 -46q-1 0 -4.5 1t-6.5 1l7 45h4q3 -1 6 -1zM141 474q-1 0 -4 -1t-6 -1 q-2 15 -6 44q6 0 10 2q2 -13 6 -44zM351 400q-6 0 -8 -2q-2 1 -7 10q-3 -3 -3 -6q-1 0 -4 1h-4q0 2 -1 2.5t-1 2.5q0 -5 6 21q5 -2 9 -2t13 -27zM534 394l-6 -45q-1 0 -4 1h-6l6 46q1 0 4.5 -1t5.5 -1zM311 334q-1 0 -4 1t-3.5 1.5l-1.5 1.5t-1 3t5 16.5t7 20.5q4 0 12 -2z M159 333q-1 0 -4 -1t-6 -1q-2 15 -7 46q6 0 11 2q2 -14 6 -46zM374 329q-6 0 -8 -2q-2 3 -16 41q2 2 10 2q4 -12 14 -41zM517 255l-6 -45h-5q-3 1 -6 1l7 46q1 0 4 -1t6 -1zM267 201q-1 0 -4 1h-4q0 2 -1 3t-1 3q0 1 5 15.5t7 21.5q4 0 12 -2zM177 194q-2 0 -5 -1t-6 -1 q-1 15 -6 46q6 0 10 2q3 -14 7 -46zM418 196q-6 0 -8 -3q-2 3 -16 41q2 3 10 3q4 -13 14 -41zM499 114l-6 -44q-1 0 -4.5 1t-5.5 1l6 44q1 0 4.5 -1t5.5 -1zM223 67q-1 0 -4 1t-3.5 1.5l-1.5 1.5t-1 3t5 16.5t7 20.5q4 0 12 -1zM194 54h-4q-3 -1 -6 -1q-2 14 -6 45q5 0 10 3 q2 -15 6 -47zM462 62q-6 0 -8 -2q-2 3 -16 41q2 2 10 2q4 -12 14 -41zM490 45l-6 -45h-12q-3 7 -8 22q2 3 5 3q4 0 6 -2q2 7 5 24q1 0 4.5 -1t5.5 -1zM201 0h-11q-3 17 -3 26l6 3q3 0 4 -1q3 5 6 16q4 0 12 -2zM590 799l-6 -36q-2 0 -5 1t-6 1l7 35q1 0 4 -1h6z" />
<glyph unicode="X" horiz-adv-x="564" d="M111 755q-7 13 -22 42q3 0 7 3q3 -3 23 -37q0 -4 -8 -8zM487 758h-6q-3 4 -3 6t18 34h6q1 -2 4 -6q-6 -11 -19 -34zM176 628q-15 28 -22 43q3 0 7 4q5 -5 23 -39q0 -4 -8 -8zM422 631h-6q-3 4 -3 6q0 -1 18 36h6q1 -2 4 -6q-6 -11 -19 -36zM241 503q-15 28 -22 43 q3 0 6 3q5 -4 24 -38q0 -4 -8 -8zM358 506h-6q-4 4 -4 6q0 -1 18 35h6q1 -1 4 -5q-6 -11 -18 -36zM228 256h-6q-4 3 -4 5q0 -5 17 34h6q1 -1 4 -5q-10 -17 -17 -34zM371 252l-21 42q3 0 7 3l22 -37q0 -4 -8 -8zM162 129h-6q-4 4 -4 6q0 -1 18 35h6q1 -2 4 -6q-6 -11 -18 -35 zM437 125q-15 28 -22 44q3 0 7 3q5 -5 23 -38q0 -5 -8 -9zM97 3h-6q-4 4 -4 6q0 -1 18 36h6q1 -2 4 -6q-6 -11 -18 -36zM502 0q-15 28 -22 43q3 0 6 4q5 -5 24 -39q0 -4 -8 -8zM317 359q-5 10 -19 31q-2 -1 -17 -33q-1 1 -5.5 2t-4.5 4q0 2 10.5 20.5t10.5 20.5q0 3 -9 18 t-10 18q3 0 8 5q0 -3 7 -15t9 -13l18 29q3 -1 8 -6q-19 -38 -19 -36q0 -2 10.5 -19t10.5 -18q0 -4 -8 -8z" />
<glyph unicode="Y" horiz-adv-x="525" d="M99 752l-20 44q3 0 7 4q9 -13 21 -41q-1 -1 -4 -3t-4 -4zM462 756h-6q-4 4 -4 6q0 -5 15 36h6q4 -4 4 -6q0 5 -15 -36zM401 629h-5q-4 3 -4 5t16 36h6q1 -2 5 -6q-6 -11 -18 -35zM157 624q-8 14 -20 43q3 0 6 3q6 -5 12 -17q10 -20 10 -21q0 -4 -8 -8zM343 501h-6 q-4 3 -4 5q0 -5 15 36h6q4 -4 4 -6q0 5 -15 -35zM215 495l-20 44q3 0 7 4q9 -14 21 -41q-1 -1 -4 -3t-4 -4zM283 372v-38h-10v28l-20 47q3 0 7 4q3 -4 16 -27q5 8 13 28h6q4 -4 4 -6t-8 -18t-8 -18zM283 267v-46h-10v46h10zM283 142v-46h-10v46h10zM283 27v-27h-10v27h10z " />
<glyph unicode="Z" horiz-adv-x="566" d="M110 800v-10h-45v10h45zM249 800v-10h-45v10h45zM388 800v-10h-45v10h45zM510 800q0 -2 1.5 -6t1.5 -6q0 1 -31 -54h-6q-1 1 -2 2.5t-2 3.5q11 19 28 47q-4 3 -38 3v10h48zM425 633h-5q-1 2 -4 6q6 11 19 33h6q1 -1 4 -5q-7 -12 -20 -34zM357 513h-6q-1 1 -4 5 q7 11 20 34h6q1 -2 4 -6q-7 -11 -20 -33zM289 391h-6q-1 1 -4 5q7 11 20 34h6q1 -2 4 -6q-7 -11 -20 -33zM221 269h-6q-1 1 -4 5q7 12 20 34h5q1 -2 5 -6q-7 -11 -20 -33zM152 148h-5q-1 2 -4 6q6 11 19 33h6q1 -1 4 -5q-7 -12 -20 -34zM84 26h-6q-1 2 -4 6q7 11 20 33h6 q1 -1 4 -5q-7 -12 -20 -34zM112 10v-10h-45v10h45zM252 10v-10h-45v10h45zM391 10v-10h-45v10h45zM531 10v-10h-45v10h45z" />
<glyph unicode="[" horiz-adv-x="239" />
<glyph unicode="\" horiz-adv-x="239" />
<glyph unicode="]" horiz-adv-x="239" />
<glyph unicode="^" horiz-adv-x="239" />
<glyph unicode="_" horiz-adv-x="239" />
<glyph unicode="`" horiz-adv-x="239" />
<glyph unicode="a" horiz-adv-x="561" d="M324 515q1 -4 3 -10q2 -4 -4 -5q1 0 -48 3q0 1 0.5 5.5t-0.5 8.5q16 -1 49 -2zM467 512v-58h-12v58h12zM205 487q-18 -9 -22 -12q-12 -7 -19 -17q-3 0 -10 7q18 28 49 32q0 -2 1 -5.5t1 -4.5zM438 465q-32 12 -50 20q3 4 3 11q8 -2 53 -19q-2 -5 -6 -12zM116 349 q-9 7 -8 17q1 12 10 43q3 -1 14 -4q-10 -26 -16 -56zM473 189h-12v56q7 0 12 3v-59zM404 64h-8q0 3 -4 8q13 13 27 40q2 3 5 3q2 0 9 -7q-11 -20 -29 -44zM179 17l-8 -11q-11 15 -33 44l9 11q10 -14 32 -44zM493 10q-7 0 -12 -3l-13 54q3 3 12 3q5 -18 13 -54zM304 4 q-6 -11 -30 -11h-25q0 2 1 6t1 7q27 -2 51 8q0 -7 2 -10zM470 322h-12v56q7 0 12 3v-59zM101 243l-12 2l5 56q6 -1 12 2zM121 113l-11 -7q-6 17 -18 53l12 7q5 -17 17 -53z" />
<glyph unicode="b" horiz-adv-x="510" d="M110 800v-45h-10v45h10zM110 659v-45h-10v45h10zM262 524q-8 0 28 -6v-4q-1 -3 -1 -6q-28 6 -44 6v10h17zM110 519v-46h-10v46h10zM160 485q-6 -15 -35 -25q-4 0 -8 4q8 11 39 26zM405 441q0 -4 -8 -8q-6 6 -6 11q0 2 -21 23l8 8q10 -11 27 -34zM111 400v-46h-11v46h11z M447 303q-1 0 -4 -1h-6q-2 14 -8 45h12q1 -7 3 -21.5t3 -22.5zM111 259v-45h-11v45h11zM447 208q-1 -15 -6 -45h-4q-3 1 -5 1v3q-1 1 -1 3t2.5 17t3.5 22h4q4 -1 6 -1zM100 42q-2 -18 -7 -39q-4 1 -9 5q2 10 6 36q1 0 4 -1t6 -1zM406 69q0 -5 -10.5 -17.5t-15.5 -12.5 q-4 0 -8 5q11 10 28 33q6 -6 6 -8zM158 34l-7 -7q-12 10 -37 31l8 8q24 -21 36 -32zM286 10q0 -2 1 -6v-4q-21 -2 -45 0q0 1 1 4v6h43zM110 126q-2 -32 -7 -48q-4 1 -9 5q3 14 6 44h4q3 -1 6 -1z" />
<glyph unicode="c" horiz-adv-x="463" d="M285 513q0 -1 -1 -4v-5q2 0 -8 0q-11 1 -32 1q0 5 -2 10q23 0 34.5 -1t8.5 -1zM402 448q-6 -6 -8 -6q-3 0 -17 12t-14 15q0 6 6 6zM169 465q0 -4 -27 -31l-3 1.5t-6 1.5q11 15 33 33q3 0 3 -5zM98 224q-2 -25 0 -41q-1 0 -4 -1h-7v42h11zM415 100q0 1 -18 -36q-3 0 -8 5 q7 13 20 40q6 -7 6 -9zM146 66q0 -2 -6 -8q-16 19 -26 35q2 3 8 7q7 -12 24 -34zM356 31q-13 -8 -38 -23q-2 3 -5 8q11 7 36 23zM256 12v-9q-13 1 -42 7q0 1 1 3.5t1 4.5h2q0 1 2 1t16 -3t20 -4zM103 311l-10 2l-1 1q1 -4 1 -1q0 19 10 44q1 -2 5 -2.5t4 -1.5q0 -4 -4 -20.5 t-5 -21.5z" />
<glyph unicode="d" horiz-adv-x="520" d="M300 553q0 -1 -1 -4.5t-1 -5.5q3 0 -8 0q-12 1 -34 1q0 6 -3 10h38q12 -1 9 -1zM426 482q-6 -6 -9 -6t-18 13t-15 16q0 7 6 7zM175 501q0 -5 -29 -33q-1 0 -4 1t-6 1q11 17 35 36q4 1 4 -5zM112 376q0 -2 -3.5 -17.5t-4.5 -23.5h-7q-3 7 -3 10q0 15 10 39q2 -3 5 -4.5 t3 -3.5zM98 241q-2 -27 1 -44q-1 0 -4.5 -1t-8.5 -1q1 9 0 46h12zM150 71q0 -3 -6 -9q-18 21 -28 38q2 3 8 8q8 -13 26 -37zM404 51q-13 -10 -38 -30q-2 3 -7 8l36 30zM269 13v-10q-15 1 -46 7q0 2 1 4.5t1.5 3.5t1.5 2h3t17 -3t22 -4zM448 803v-46h-11v46h11zM449 690v-45 h-11v45h11zM449 549v-45h-11v45h11zM449 408v-46h-11v46h11zM449 267v-46h-11v46h11zM449 126v-46h-11v46h11zM447 37v-34h-10v34h10z" />
<glyph unicode="e" horiz-adv-x="495" d="M344 499q0 -4 2 -6q-3 -3 -3 -6q-14 4 -41 13v4q1 3 1 5q27 -6 41 -10zM215 493q-11 -8 -38 -22q-1 1 -6 4q16 17 40 23zM430 389q-5 0 -9 -2q-5 18 -18 36q6 6 10 5q8 -12 17 -39zM121 402q-13 -27 -16 -41q-1 0 -4 1h-5v6q10 31 18 37q4 -3 7 -3zM443 298v-39h-16v10 q3 0 6 2v23l3 4h7zM92 272q2 0 4 -3h37v-10h-39q0 2 0 -31h-9v44h7zM240 269v-10h-44v10h44zM375 269v-10h-43v10h43zM128 105q0 -4 -7 -8q-8 12 -22 38l2 1q0 1 6 1q1 0 21 -32zM433 61l-34 -23q-5 3 -10 2q17 21 38 27q4 1 6 -6zM224 13q0 -6 -3 -6q-12 0 -40 20q6 5 9 5 q10 -5 34 -19zM345 5q-14 -2 -43 -6q0 6 -1 10q9 1 41 6q3 -4 3 -10z" />
<glyph unicode="f" horiz-adv-x="444" d="M350 796v-11q-15 1 -48 -9q-3 12 1 12zM474 775q0 -1 2 -4q-5 -5 -8 -5q-4 0 -41 19q2 3 2 8h6q10 0 39 -18zM240 724q-10 -14 -23 -40q-9 0 -9 4q0 3 9.5 20.5t14.5 22.5q2 -2 8 -7zM208 623v-49h-11v49h11zM114 474v-11h-43v11h43zM235 474v-11h-49v11h49zM373 474v-11 h-49v11h49zM209 470v-49h-11v49h11zM209 318v-49h-11v49h11zM211 166v-49h-11v49h11zM211 50v-50h-11v50h11z" />
<glyph unicode="g" horiz-adv-x="540" d="M294 531l25 -4q0 -13 -2 -13q-5 0 -18.5 3.5t-24.5 3.5v10h20zM185 482q0 -4 -33 -37l-8 8l35 37q6 -6 6 -8zM446 437q0 -3 -7 -9q-11 12 -36 36l8 9q23 -23 35 -36zM107 356q0 -3 -10 -42q-9 5 -9 11q0 15 11 40q1 -3 4.5 -5t3.5 -4zM469 502q-2 -16 -6 -49q-2 0 -5.5 1 t-5.5 1q3 22 6 48q1 0 5 -1h6zM461 353v-48h-11v48h11zM461 203v-48h-11v48h11zM179 71q0 -3 -6 -8q-13 6 -36 33l9 8q15 -18 33 -33zM441 91q0 -1 -34 -35l-9 8l37 35q6 -6 6 -8zM462 54v-49h-11v49h11zM311 24q0 -1 1 -5t1 -6q-39 1 -51 1q6 11 10 11q-1 0 9 0 q10 -1 30 -1zM461 -90v-11q0 -2 -3.5 -15.5t-4.5 -20.5q-12 0 -12 2t4 20t5 26h5q4 -1 6 -1zM129 -195l-6 -7q-11 9 -34 35l7 7q13 -11 33 -35zM397 -225v-6q-7 -5 -41 -22q-2 3 -7 9q15 7 44 23zM254 -257v-9q-5 -2 -26 -1l-25 6q5 10 8 10q2 0 18 -2.5t25 -3.5zM105 179 q-2 -5 -11 -6q-4 16 -7 49q3 -1 11 -2q2 -22 7 -41z" />
<glyph unicode="h" horiz-adv-x="493" d="M103 798v-46h-10v46h10zM102 685v-46h-10v46h10zM350 530q-2 -3 -6 -8q-17 7 -42 12q0 1 1 4.5t1 5.5q15 -2 46 -14zM214 526q-12 -8 -36 -26q-3 0 -8 6q8 10 35 29zM103 564v-46h-10v46h10zM427 434v-18q-1 0 -4 -1h-6q3 17 -9 45h13q6 -30 6 -26zM105 447 q-3 -32 -1 -37q3 6 10 19q6 -6 6 -8q0 2 -16 -40q-3 2 -9 5q2 4 4 12q-3 4 -7 3v46h13zM432 321v-46h-10v46h10zM104 308v-46h-11v46h11zM432 179v-45h-10v45h10zM103 167v-46h-10v46h10zM432 38v-37h-10v37h10zM103 34v-32h-11v32h11z" />
<glyph unicode="i" horiz-adv-x="228" d="M132 567q-5 1 -18 1v36q6 -1 18 0v-37zM126 360v-37h-8v37h8zM126 247v-37h-8v37h8zM126 134v-36h-8v36h8zM126 32v-37h-8v37h8zM126 458v-37h-8v37h8z" />
<glyph unicode="j" horiz-adv-x="438" d="M363 602v-42h-18v42h18zM363 445v-42h-10v42h10zM363 315v-42h-10v42h10zM363 184v-42h-10v42h10zM363 54v-42h-10v42h10zM365 -76q-2 -29 -6 -45q-3 2 -9 5q3 12 6 40h9zM97 -91q0 -8 2.5 -19.5t2.5 -16.5q0 -4 -8 -8q-7 22 -7 26v18h10zM313 -194l-15 -15 q-11 -10 -21 -11q0 4 -4 8q8 2 19 11.5t15 12.5zM190 -213v-4q-1 -4 -1 -6q-12 5 -40 13l-4 4l7 7q4 -3 38 -14z" />
<glyph unicode="k" horiz-adv-x="414" d="M93 800v-46h-11v46h11zM92 691v-46h-11v46h11zM382 555l-31 -34l-8 8l31 34zM92 549v-46h-11v46h11zM309 476l-31 -35l-8 8l31 35zM225 380l-33 -35l-8 8l33 35zM92 406v-46h-11v46h11zM214 282v-7q-2 0 -6 -4l-31 35l8 8zM147 288l-32 -34l-8 8l32 34zM92 264v-46h-11 v46h11zM287 193v-6q-3 0 -6 -4l-32 36l8 8zM364 106v-7q-2 0 -6 -4l-31 37l8 8zM92 121v-46h-11v46h11zM444 10v-6q-2 0 -6 -4l-32 35l8 8zM92 26v-26h-10v26h10z" />
<glyph unicode="l" horiz-adv-x="229" d="M126 800v-46h-10v46h10zM125 685v-46h-10v46h10zM125 566v-46h-10v46h10zM126 428v-45h-10v45h10zM126 288v-46h-10v46h10zM126 153v-46h-10v46h10zM125 26v-26h-10v26h10z" />
<glyph unicode="m" horiz-adv-x="593" d="M270 512q0 -1 -1 -4t-1 -6q-15 3 -43 6v4q1 3 1 6q29 -3 44 -6zM472 512q-4 -9 -5 -9q11 0 -39 5q0 1 1 4v6q14 -2 43 -6zM111 470v-8q-1 0 -3.5 -1t-5.5 -1q0 17 -12 36l8 7q13 -21 13 -33zM154 470q-12 -12 -29 -32q-4 4 -4 7q0 8 26 32zM370 488q-17 -17 -27 -32 q-3 0 -8 5q3 10 28 34zM327 395h-9q-1 12 -5 41q9 0 10 -1q2 -18 4 -40zM529 410v-15h-10q0 21 -4 41h8q6 0 6 -26zM114 398v-43h-9v43h9zM326 306v-42h-9v42h9zM528 306v-42h-8v42h8zM112 267v-43h-9v43h9zM326 175v-42h-10v42h10zM528 175v-42h-10v42h10zM111 136v-43h-10 v43h10zM110 45v-39h-10v39h10zM326 44v-38h-10v38h10zM528 44v-38h-10v38h10z" />
<glyph unicode="n" horiz-adv-x="478" d="M336 508v-6q-1 -2 -1 -3q-15 5 -41 11v7q1 0 3.5 1.5t4.5 1.5q22 0 34 -12zM243 515q-2 -1 -37 -20q-2 2 -6 5q11 13 39 19zM117 474v-8q-1 0 -4 -1t-6 -1q1 17 -11 37l7 7q14 -21 14 -34zM404 393h-4q-3 -1 -6 -1q-1 13 -6 42q1 1 7 1q4 0 6 -16q2 -21 3 -26zM119 409 v-43h-10v43h10zM408 303v-43h-10v43h10zM117 276v-43h-10v43h10zM406 170v-43h-9v43h9zM115 143v-43h-9v43h9zM115 42v-40h-9v40h9zM406 37v-35h-9v35h9zM172 473q-2 -1 -33 -26q-2 1 -7 4q9 14 35 26z" />
<glyph unicode="o" horiz-adv-x="499" d="M263 509v-8q-13 -2 -38 -6q0 2 -1 4v4q11 6 28 6h11zM371 456q0 -2 -5 -7q-9 8 -28 23v5q2 1 5 4q10 -7 28 -25zM160 453q-8 -10 -25 -30q-3 2 -7 6q1 2 25 31zM428 346q-5 0 -9 -2q-2 6 -7 19.5t-5 14.5t7 8q10 -23 14 -40zM99 352q3 1 3 -3q0 5 -9 -36q-1 0 -4 1t-5 1 q2 13 11 37h4zM439 266v-39h-4q-3 1 -6 1q2 4 1 38h9zM98 169q-5 0 -8 -2q-6 24 -7 39q1 0 4 1.5t5 1.5q1 -14 6 -40zM409 111h-5q-3 3 -3 5q0 -3 13 31q4 0 10 -1q-4 -12 -15 -35zM145 58q-7 4 -14 15q-10 17 -12 19q4 0 7 3q7 -10 24 -30q0 -2 -5 -7zM360 43 q-4 -10 -28 -25q-4 4 -9 4q16 11 31 27zM249 2q-3 -3 -6 -3q-6 0 -31 6q-3 5 0 11q25 -8 37 -8v-6z" />
<glyph unicode="p" horiz-adv-x="497" d="M99 449q-5 0 -9 -2q0 4 -6 21q3 0 6 3q1 -2 9 -22zM251 445q-14 -2 -37 -8v4l-1 3q6 5 18 7q18 3 19 3v-4q1 -2 1 -5zM361 416q0 -2 -5 -7q-10 8 -32 23q1 3 5 7q12 -4 32 -23zM109 388l2 -1q10 10 29 21l4 -3q-9 -8 -27 -26q-2 0 -5 3q-2 -2 -2 -7h-3q-2 -1 -5 -1 q0 7 -2 29q5 0 9 2v-17zM422 313q-5 0 -7 -2q-12 23 -18 36q3 0 5 2l2 -1h1t17 -35zM111 296v-38h-8v38h8zM436 236q4 -7 -1 -38l-3 1h-5q5 22 1 34zM109 178v-37h-8v37h8zM422 117q0 -14 -14 -34q-1 0 -3.5 1t-3.5 1q4 12 14 35q7 0 7 -3zM109 61v-38h-8v38h8zM363 17 q-5 -6 -16 -9.5t-20 -7.5q0 2 -1 5v3q10 4 33 14q1 -1 4 -5zM247 -14q-16 2 -40 7q3 3 3 7q12 -2 36 -5q0 -1 1 -3v-6zM109 -56v-38h-8v38h8zM109 -174v-38h-8v38h8zM109 -291v-38h-8v38h8zM143 25q0 -5 -3 -5q-1 0 -7.5 5.5t-12.5 8.5q5 6 8 6q8 0 15 -15z" />
<glyph unicode="q" horiz-adv-x="478" d="M508 -257q0 3 -9 -32q-2 2 -3.5 2.5t-2.5 1.5v3q0 -2 8 32q6 -3 7 -7zM407 -293q-4 0 -8 -1q-6 25 -6 30q0 6 8 7q2 -14 6 -36zM446 -328q-1 2 -1 4q12 5 27 15l5 -2q2 -4 1 -5q-1 -4 -13.5 -8t-18.5 -4zM398 442q4 0 7 -2q2 7 8 26q-2 0 -5 3q-10 -11 -10 -20v-7z M253 444q14 -2 35 -8q0 2 1 4t1 3q-13 3 -36 9v-3q-1 -3 -1 -5zM148 416q0 -2 4 -7q11 8 32 23q-2 2 -5 6q-12 -4 -31 -22zM389 389l-1 -1q-10 9 -29 21l-3 -4q8 -7 26 -25q1 0 5 3q1 -1 1 -6q1 0 3 -1h5q1 4 2 23q-4 0 -8 2q0 -2 -1 -12zM90 317q5 0 7 -2q11 23 16 35 q-2 0 -4 2l-2 -1h-1t-16 -34zM387 301v-37h9v37h-9zM76 243q-4 -6 0 -36q1 0 4 1h5q-5 21 -1 32zM389 188v-36h8v36h-8zM89 129q0 -13 14 -32l2.5 1t4.5 1q-5 12 -14 33q-7 0 -7 -3zM389 76v-37h8v37h-8zM146 34q5 -6 15 -9.5t20 -6.5v4q1 2 1 3q-11 4 -32 13zM257 4 q15 1 38 7q-2 2 -2 6q-12 -2 -35 -5l-1 -3v-5zM389 -37v-36h8v36h-8zM389 -149v-37h8v37h-8zM357 41q0 -4 3 -4q1 0 7 5t12 8q-5 5 -8 5q-7 0 -14 -14z" />
<glyph unicode="r" horiz-adv-x="431" d="M267 503l-42 -6q0 5 -2 9q13 3 42 6q0 -1 1 -3.5t1 -5.5zM380 453q-3 -2 -8 -6q-11 16 -28 32l8 8q9 -11 28 -34zM153 452l-26 -32q-6 5 -6 7q0 -2 25 32zM114 393h-9v41q5 0 9 2v-43zM111 304v-43h-10v43h10zM109 172v-43h-9v43h9zM109 40v-40h-10v40h10zM109 473 q-2 0 -5 -1h-5q-4 11 -10 21l8 8q3 -5 12 -28z" />
<glyph unicode="s" horiz-adv-x="480" d="M299 506l-3 -3h-35v4q-1 2 -1 3q5 1 39 1v-5zM158 454l-5 6q3 6 27 26q3 -1 7 -5q-10 -8 -29 -27zM404 457q0 -2 -5 -7q-10 7 -32 21q5 4 9 5q1 0 28 -19zM130 386q1 -11 13 -33q-3 -2 -7 -5q-3 1 -9 14.5t-6 18.5v5h9zM238 290q-2 -3 -5 -8q-12 4 -37 14q5 5 10 6 q6 0 32 -12zM344 245q-18 9 -34 14q0 1 1 3.5t1 3.5q8 0 37 -14q-2 -3 -5 -7zM412 156q-9 14 -16 36q2 0 5 3q8 -8 18 -37q-5 0 -7 -2zM393 42q-5 5 -5 7q0 -5 14 32h5q3 -4 3 -5q0 -9 -17 -34zM210 23q0 -3 -3 -9h-6q7 0 -28 10q0 3 -2 5q5 5 6 5q2 -1 33 -11zM325 -1 q-1 -1 -38 1v8q17 -1 37 0v-4q1 -2 1 -5zM115 75q-4 -6 -7 -5q-5 1 -25 25q0 4 7 6q8 -8 25 -26z" />
<glyph unicode="t" horiz-adv-x="343" d="M232 800v-50h-11v50h11zM232 645v-50h-11v50h11zM135 584v-12h-50v12h50zM368 584v-12h-50v12h50zM232 490v-50h-11v50h11zM232 335v-50h-11v50h11zM232 180v-50h-11v50h11zM231 33v-33h-11v33h11zM252 583v-12h-50v12h50z" />
<glyph unicode="u" horiz-adv-x="494" d="M176 1q0 3 1 5.5t1 3.5q14 -6 41 -11v-7q-2 0 -4.5 -1.5t-3.5 -1.5q-23 0 -35 12zM275 0q1 0 37 19q1 -2 5 -5q1 -10 -38 -19zM396 34v8q1 0 3.5 1t5.5 1q0 -17 12 -36l-8 -8q-13 22 -13 34zM353 49l26 33q6 -6 6 -8q0 2 -25 -32zM392 138h9v-41q-5 0 -9 -2v43zM108 114 q2 0 5 1h5q2 -13 6 -41q-1 -1 -7 -1q-4 0 -5 16q-2 21 -4 25zM395 198v42h10v-42h-10zM105 203v43h9v-43h-9zM396 329v43h10v-43h-10zM106 335v42h10v-42h-10zM397 461v40h10v-40h-10zM106 466v35h10v-35h-10z" />
<glyph unicode="v" horiz-adv-x="499" d="M418 470q-3 2 -8 5l12 37q4 0 10 -2q-4 -13 -14 -40zM111 472q-6 0 -8 -3q-1 3 -14 36q2 3 9 3q4 -11 13 -36zM381 354h-3q-3 1 -3.5 1.5l-1.5 1.5v3q0 -10 10 33q4 0 11 -2zM149 353q-5 0 -9 -2l-12 37q2 2 9 2zM342 236q-1 0 -3 1h-4q0 2 -1 3v2q0 -10 10 33q4 0 11 -2 zM188 235q-5 0 -9 -2l-12 37q2 2 9 2zM303 116q-3 2 -8 5l12 36q4 0 10 -1q-4 -13 -14 -40zM227 117q-5 0 -7 -2q-2 3 -14 36q2 2 8 2q5 -11 13 -36zM266 0h-9q-10 26 -23 63q3 1 9 4q7 -22 18 -49q13 23 18 52q4 0 11 -2z" />
<glyph unicode="w" horiz-adv-x="610" d="M100 491q-5 0 -7 -2q-2 2 -9 25q1 1 8 1q-1 0 8 -24zM559 506l-13 -37q-3 2 -8 5q4 13 15 39q2 -2 6 -7zM127 382q-5 0 -9 -2q-3 13 -9 41q3 -3 10 -3q4 -16 8 -36zM520 353q-3 1 -9 5q4 15 8 35q2 0 10 -2q-3 -12 -9 -38zM335 302q-5 0 -7 -2l-15 36q1 1 8 1q2 0 14 -35 zM304 287q-1 0 -3 1h-4l-1 5l12 34q7 -7 7 -5q-3 -12 -11 -35zM150 265q-5 0 -8 -2q-3 12 -9 40q3 -2 9 -2q4 -16 8 -36zM367 218q-5 0 -7 -2q-8 16 -15 36q1 1 8 1q2 0 14 -35zM494 236q-4 1 -9 4q4 16 8 36q2 0 10 -2q-3 -12 -9 -38zM288 243q0 -2 -5 -14.5t-6 -18.5h-4 q-2 1 -4 1v2q-1 1 -1 2q0 -1 14 35q1 -2 3.5 -4t2.5 -3zM175 147q-5 0 -8 -1q-4 16 -8 35q2 3 8 3zM407 104q-5 0 -7 -2q-1 3 -14 35q2 2 9 2q4 -10 12 -35zM466 120q-3 1 -8 5q4 15 8 35q2 0 10 -2q-4 -12 -10 -38zM249 129q0 -1 -5 -14t-6 -19q-1 0 -3.5 1t-3 1.5 l-1.5 1.5v2q0 -1 13 35q1 -3 3.5 -4.5t2.5 -3.5zM199 30q-5 0 -9 -2q-2 13 -8 41q2 -3 9 -3q4 -16 8 -36zM435 26q6 18 7 18q4 0 7 -3q-3 -13 -9 -38q-3 1 -8 5l2 11q-1 2 -7 0q-4 11 -13 35q1 1 8 1zM207 4h-13q2 2 15 37q4 0 10 -1z" />
<glyph unicode="x" horiz-adv-x="526" d="M138 485q0 -4 -7 -7l-22 31l2 2q-3 1 8 1zM207 386q0 -4 -6 -7l-22 31l1 2q-3 1 8 1zM276 287q0 -4 -6 -7l-25 36q1 -1 12 -1zM312 238q0 -4 -7 -7l-25 33q1 0 9 4zM364 159q0 -4 -7 -7l-25 33q1 0 9 4zM431 59q0 -3 -6 -7l-25 37q0 -1 2 1t4 2zM470 7q0 -3 -7 -7l-14 20 q3 5 7 5zM422 485q0 -4 7 -7l22 31l-2 2q3 1 -8 1zM353 386q0 -4 6 -7l22 31l-1 2q3 1 -8 1zM284 287q0 -4 6 -7l25 36q-1 -1 -12 -1zM249 238q0 -4 6 -7l25 33q-1 0 -9 4zM195 162q0 -3 7 -7l25 33q-1 0 -9 4zM128 63q0 -4 6 -7l25 36l-2 2t-4 2zM90 7q0 -3 7 -7l14 20 q-3 5 -7 5z" />
<glyph unicode="y" horiz-adv-x="510" d="M97 435l-15 33q3 0 6 3q6 -10 16 -31q-2 -2 -7 -5zM446 436q-3 4 -3 6q0 -1 10 28h6v-3q1 -1 1 -3q0 -3 -6 -14.5t-8 -13.5zM146 339q-2 -2 -7 -5q-8 18 -13 35h4q2 1 4 1zM407 334q-3 3 -3 6q0 -1 11 27h5q0 -1 1 -2v-3q0 -3 -5.5 -14.5t-8.5 -13.5zM182 234l-15 34 q3 0 6 3q6 -11 16 -32q-2 -1 -7 -5zM372 232q-6 2 -6 6l11 27h6q0 1 1 -5zM231 138q-2 -1 -7 -5q-8 18 -13 35h4q2 1 4 1zM331 130q-3 3 -3 5l11 28h5q0 -1 1 -2v-3q0 -3 -5.5 -14.5t-8.5 -13.5zM268 33l-15 34q2 0 5 3q6 -11 16 -32q-1 -1 -3 -2.5t-3 -2.5zM293 28 q-4 3 -4 5l11 28h5q0 -1 1 -2v-3q0 -4 -5.5 -15t-7.5 -13zM274 -22q-4 3 -4 5t4 11.5t4 10.5l-4 12h4q2 1 3 1q6 -18 6 -13q0 -14 -13 -27zM238 -124q-6 2 -6 5l11 28h6q0 1 1 -5zM198 -226q-4 3 -4 5l11 28h5q0 -1 1 -2v-3q0 -4 -5.5 -15t-7.5 -13zM159 -329q-3 4 -3 6 l10 28h5q0 -1 1 -2.5t1 -2.5q0 -4 -6 -15.5t-8 -13.5z" />
<glyph unicode="z" horiz-adv-x="528" d="M222 512v-9h-38v9h38zM340 512v-9h-38v9h38zM458 512v-9h-38v9h38zM475 504l-25 -31l-7 7l25 30zM401 411l-26 -28l-7 6l26 29zM326 321l-25 -31l-7 7l25 30zM252 229l-25 -31l-6 7l25 30zM177 138l-25 -30l-6 6l25 30zM104 46l-25 -31l-7 7l25 30zM125 9v-9h-38v9h38z M243 9v-9h-38v9h38zM361 9v-9h-38v9h38zM479 9v-9h-38v9h38zM110 512v-9h-38v9h38z" />
<glyph unicode="&#xd0;" horiz-adv-x="518" d="M292 570l25 -5q0 -12 -2 -12q-6 0 -19.5 3t-23.5 3v11h20zM174 539q-10 -2 -45 -16q0 4 -4 8q25 16 47 19q0 -1 1 -4.5t1 -6.5zM421 460v-7q-6 0 -10 -2q-10 30 -19 46q4 0 6 3l3 -2q0 1 2 1q4 0 18 -39zM299 356q2 -3 3 -9q2 -3 -4 -4q2 0 -43 3q1 3 0 11q14 0 44 -1z M430 354v-49h-11v49h11zM191 332q-13 -5 -37 -23q-3 0 -9 6q17 23 44 26q0 -1 1 -4t1 -5zM403 315q-29 9 -45 16q3 3 3 9q6 -1 48 -15q-2 -4 -6 -10zM99 175q-9 5 -9 14t6 36q3 0 13 -2q-7 -22 -10 -48zM432 156h-11v47q6 0 11 2v-49zM369 53h-7q0 3 -3 6q11 11 23 34 q3 2 6 2q1 0 7 -6q-9 -16 -26 -36zM140 42l-8 -8q-10 12 -27 38l8 9zM450 8q-6 0 -11 -2l-12 45q3 2 11 2q5 -15 12 -45zM279 4q-6 -10 -28 -10h-23q0 1 1 5t1 6q24 -2 47 7q0 -6 2 -8z" />
<glyph unicode="&#x2000;" horiz-adv-x="444" />
<glyph unicode="&#x2001;" horiz-adv-x="888" />
<glyph unicode="&#x2002;" horiz-adv-x="444" />
<glyph unicode="&#x2003;" horiz-adv-x="888" />
<glyph unicode="&#x2004;" horiz-adv-x="296" />
<glyph unicode="&#x2005;" horiz-adv-x="222" />
<glyph unicode="&#x2006;" horiz-adv-x="148" />
<glyph unicode="&#x2007;" horiz-adv-x="148" />
<glyph unicode="&#x2008;" horiz-adv-x="111" />
<glyph unicode="&#x2009;" horiz-adv-x="177" />
<glyph unicode="&#x200a;" horiz-adv-x="49" />
<glyph unicode="&#x202f;" horiz-adv-x="177" />
<glyph unicode="&#x205f;" horiz-adv-x="222" />
<glyph unicode="&#x25fc;" horiz-adv-x="510" d="M0 510h510v-510h-510v510z" />
</font>
</defs>
</svg>
